<svg width="40" height="50" viewBox="0 0 40 50" fill="none" xmlns="http://www.w3.org/2000/svg">
<path d="M28 44C29.1046 44 30 44.8954 30 46V48C30 49.1046 29.1046 50 28 50H13C11.8954 50 11 49.1046 11 48V46C11 44.8954 11.8954 44 13 44H28Z" fill="#FFC400"/>
<path d="M20 0C31.0457 0 40 8.9543 40 20C40 28.4618 34.7449 35.6949 27.3203 38.6162C25.9234 39.1658 24.6475 37.834 25.0498 36.3877L29.6982 19.6768C30.0249 18.5024 29.2335 17.3117 28.0244 17.1572L19.4062 16.0576C18.3106 15.9179 17.5497 14.9176 17.8086 13.8438C18.1022 12.626 18.5103 11.2118 18.9238 9.875C19.4109 8.30047 17.989 6.99932 16.7422 8.07715C13.8937 10.5396 11.7967 14.4587 10.6182 17.3994C10.192 18.4631 10.8427 19.6181 11.9541 19.8975L19.1377 21.7031C20.5401 22.0558 21.116 23.7344 20.2256 24.874L16.6465 29.4561C13.0168 34.1014 6.12033 35.5542 3.00586 30.5488C1.1006 27.4867 0 23.8721 0 20C0 8.9543 8.9543 0 20 0Z" fill="#FFC400"/>
</svg>
